<svg xmlns="http://www.w3.org/2000/svg" viewBox="0 0 900 900" role="img" aria-labelledby="title desc">
  <title id="title">Double Click restaurant logo</title>
  <desc id="desc">Circular Double Click restaurant logo with casual food and tech theme.</desc>
  <defs>
    <style>
      .navy{fill:#123f59}.orange{fill:#d95634}.cream{fill:#fff8e8}.ink{fill:#1d2328}.line{fill:none;stroke:#123f59;stroke-width:18;stroke-linecap:round;stroke-linejoin:round}.thin{fill:none;stroke:#1d2328;stroke-width:10;stroke-linecap:round;stroke-linejoin:round}
    </style>
  </defs>
  <circle cx="450" cy="450" r="400" fill="#fff8e8"/>
  <circle cx="450" cy="450" r="386" fill="none" stroke="#123f59" stroke-width="22"/>
  <path d="M145 346a325 325 0 0 1 610 0" fill="none" stroke="#d95634" stroke-width="34"/>
  <path d="M164 352a304 304 0 0 1 572 0" fill="none" stroke="#123f59" stroke-width="18"/>
  <path d="M178 530a300 300 0 0 0 544 0" fill="none" stroke="#123f59" stroke-width="18"/>
  <g transform="translate(360 76) rotate(42)">
    <rect x="82" y="3" width="28" height="170" rx="14" class="navy"/>
    <rect x="43" y="6" width="18" height="78" rx="9" class="navy"/>
    <rect x="71" y="6" width="18" height="78" rx="9" class="navy"/>
    <rect x="99" y="6" width="18" height="78" rx="9" class="navy"/>
    <rect x="127" y="6" width="18" height="78" rx="9" class="navy"/>
    <rect x="75" y="76" width="38" height="98" rx="19" class="navy"/>
  </g>
  <g transform="translate(482 84) rotate(-43)">
    <rect x="88" y="2" width="28" height="176" rx="14" class="navy"/>
    <path d="M102 2c35 36 36 86 0 118" class="line"/>
  </g>
  <text x="450" y="352" text-anchor="middle" font-family="Arial Black, Arial, sans-serif" font-size="146" font-weight="900" class="ink">double</text>
  <text x="450" y="500" text-anchor="middle" font-family="Arial Black, Arial, sans-serif" font-size="146" font-weight="900" class="ink">click</text>
  <g transform="translate(436 438)">
    <path d="M34 22 168 100 102 123 130 195 96 209 68 136 18 187z" fill="#1d2328" stroke="#fff8e8" stroke-width="10" stroke-linejoin="round"/>
    <path d="M4 4 24 42M-32 28 12 52M-18 86 24 78" class="thin"/>
  </g>
  <g transform="translate(215 528)">
    <ellipse cx="122" cy="114" rx="144" ry="46" fill="#fffdf8" stroke="#123f59" stroke-width="12"/>
    <path d="M34 96c26-64 154-70 188 0z" fill="#eda24c" stroke="#1d2328" stroke-width="8"/>
    <path d="M44 100h168c17 0 31 12 31 28 0 16-14 28-31 28H44c-17 0-31-12-31-28 0-16 14-28 31-28z" fill="#5f2e1d" stroke="#1d2328" stroke-width="8"/>
    <path d="M42 132c28 22 58-18 86 4 30 23 58-17 90 1" fill="none" stroke="#66a83f" stroke-width="14" stroke-linecap="round"/>
    <path d="M48 155h154c12 0 22 9 22 20s-10 20-22 20H48c-12 0-22-9-22-20s10-20 22-20z" fill="#d95634" stroke="#1d2328" stroke-width="8"/>
    <circle cx="83" cy="74" r="7" fill="#fff8e8"/>
    <circle cx="124" cy="65" r="6" fill="#fff8e8"/>
    <circle cx="162" cy="79" r="6" fill="#fff8e8"/>
  </g>
  <g transform="translate(535 540)">
    <ellipse cx="130" cy="104" rx="146" ry="46" fill="#fffdf8" stroke="#123f59" stroke-width="12"/>
    <path d="M44 64 246 26 101 184z" fill="#f5bd60" stroke="#1d2328" stroke-width="10" stroke-linejoin="round"/>
    <path d="M72 78 225 50" fill="none" stroke="#d95634" stroke-width="13" stroke-linecap="round"/>
    <circle cx="112" cy="98" r="17" fill="#d95634" stroke="#1d2328" stroke-width="5"/>
    <circle cx="160" cy="82" r="15" fill="#d95634" stroke="#1d2328" stroke-width="5"/>
    <circle cx="145" cy="130" r="13" fill="#d95634" stroke="#1d2328" stroke-width="5"/>
    <path d="M260 60c18 20-14 34 6 54M292 50c22 25-16 42 6 70" fill="none" stroke="#1d2328" stroke-width="9" stroke-linecap="round"/>
  </g>
  <path id="bottomArc" d="M132 575a344 344 0 0 0 636 0" fill="none"/>
  <text font-family="Arial Black, Arial, sans-serif" font-size="38" font-weight="900" letter-spacing="3" class="ink">
    <textPath href="#bottomArc" startOffset="50%" text-anchor="middle">RESTAURANT - CASUAL FOOD - TECH &amp; TASTE</textPath>
  </text>
</svg>
